<?xml version="1.0" encoding="UTF-8"?>
<svg width="65px" height="64px" viewBox="0 0 65 64" version="1.1" xmlns="http://www.w3.org/2000/svg" xmlns:xlink="http://www.w3.org/1999/xlink">
    <!-- Generator: Sketch 63.1 (92452) - https://sketch.com -->
    <title>Logo (Blue Background)</title>
    <desc>Created with Sketch.</desc>
    <g id="Symbols" stroke="none" stroke-width="1" fill="none" fill-rule="evenodd">
        <g id="Menu-Bar-Desktop" transform="translate(-84.000000, -10.000000)">
            <rect id="Rectangle" fill="#2D2866" x="0" y="0" width="1600" height="84"></rect>
            <g id="Logo-White-(No-Background)" transform="translate(84.000000, 10.000000)">
                <g id="Logo-(Blue-Background)">
                    <g id="Group-28">
                        <path d="M45.1121324,0 L44.8043458,0 L42.9409269,0 L32.8286739,0 L31.2830613,0 L23.0211245,0 L20.2243261,0 L19.2046225,0 L14.6587332,0 L12.3649783,0 L4.69806126,0 C3.68169763,0 2.89090711,0.189766997 2.27199407,0.492094418 C-0.261464427,1.72973918 0.12622332,4.88351069 0.130077075,4.91522518 L1.7509664,15.7943332 L2.06055138,17.8718918 L2.37655929,19.992863 L3.44430632,27.1603365 L3.92114427,30.3606399 L5.85187549,43.3193862 C6.82507708,47.7960676 11.474504,47.7679925 11.474504,47.7679925 L12.6067372,47.7679925 L19.543753,47.7679925 L21.7324289,47.7682525 L28.5248004,47.7695523 L29.5057095,47.7695523 L34.0739506,47.7703321 C34.2972115,47.7687724 36.0111047,47.7206808 37.6921126,46.6673439 C39.0740692,45.8009146 40.4341877,44.2565232 40.9261838,41.4929438 L42.5316581,32.4748522 L43.7900375,25.4038219 L43.831915,25.1703825 L44.1450968,23.4130882 L45.1121324,17.9906912 L45.3523498,16.6428256 L46.4583775,10.4403043 L46.4696818,10.3766154 L47.5518162,4.30953052 C47.5685158,4.21438706 47.5811047,4.1239228 47.5942075,4.03319857 C48.1306502,0.219661798 45.1121324,0 45.1121324,0" id="Fill-4" fill="#FFFFFF"></path>
                        <path d="M14.7189032,3.50250087 C15.9282115,2.95425622 17.2654644,2.59213919 18.7293775,2.41666971 C20.1945751,2.23990045 21.5983696,2.26615589 22.9415316,2.49751565 C24.2862352,2.72731568 25.1723419,3.20745218 25.6003656,3.93844505 C26.1339822,4.87116284 26.2344368,6.04225917 25.9004447,7.44887454 C25.5669664,8.85652973 25.1284091,10.2363698 24.5878557,11.5891745 C24.0460178,12.9406794 23.5642984,14.1310124 23.1432115,15.1609533 C22.7221245,16.1898544 22.6920652,16.7776122 23.0520059,16.9276061 C23.414002,17.0892979 24.0180138,16.7539563 24.868666,15.9213211 C25.716749,15.0902456 26.6827569,14.1156751 27.7656621,12.9994292 C28.8485672,11.8829234 29.9861957,10.8077504 31.1762352,9.77261042 C32.365504,8.73669058 33.4820652,8.10630021 34.5254051,7.87650017 C35.0325593,7.7665393 35.5114526,8.11175926 35.9584881,8.91060033 C36.4070652,9.70866154 36.7690613,10.7024687 37.0413933,11.8925417 C37.3150099,13.0828747 37.4730138,14.3316975 37.5130929,15.6374504 C37.5526581,16.9432034 37.4265119,18.0355334 37.1323419,18.9157403 C36.8515316,19.7130216 36.2598518,20.3829251 35.3575593,20.924411 C34.454496,21.4640771 33.5085277,21.9657899 32.5186265,22.4266897 C31.5302668,22.88525 30.641334,23.3487493 29.8510573,23.8153682 C29.0633498,24.281987 28.6491996,24.8349109 28.6075791,25.4694605 C28.5680138,26.1196075 29.0368874,26.6899483 30.0121443,27.1864619 C30.9891996,27.6780364 32.0579743,28.2166628 33.2205237,28.7981816 C34.3846146,29.3791806 35.4274407,30.07222 36.349002,30.8778199 C37.2728755,31.6821201 37.6600494,32.7141406 37.5130929,33.9738815 C37.3784684,34.9762672 37.1654842,36.1291667 36.8702866,37.4330999 C36.5766304,38.7398926 36.1853458,39.9481625 35.6982312,41.0555699 C35.2103458,42.164537 34.6114723,43.0473435 33.9026383,43.7039893 C33.194832,44.3590754 32.365504,44.5537815 31.4172233,44.280569 C30.4522431,43.9961785 29.4548913,43.199677 28.4177174,41.8863854 C27.3818281,40.5746535 26.4022036,39.1877947 25.4803854,37.7268488 C24.5570257,36.2674626 23.7369466,34.9653491 23.0227174,33.8202482 C22.3079743,32.6767071 21.8015909,32.1328817 21.5084486,32.1864324 C21.2006621,32.2524609 21.0940415,32.7032225 21.1870455,33.5342979 C21.2805632,34.3682329 21.4208399,35.3516419 21.6078755,36.4905038 C21.7959387,37.6262463 21.9462352,38.7965628 22.0603063,39.9983338 C22.1730929,41.204784 22.104496,42.2115889 21.8483498,43.0236876 C21.6751877,43.5516558 21.0503656,43.9803212 19.9743972,44.3133233 C18.8974012,44.6434659 17.7376779,44.8475304 16.4936858,44.9322757 C15.2512352,45.0123418 14.1177174,44.9512524 13.0941601,44.7484877 C12.0718874,44.5444231 11.5272233,44.1469523 11.460168,43.5516558 C11.0717095,40.318858 10.7610968,37.3356168 10.5270455,34.6024522 C10.2929941,31.8690276 10.1897134,29.0729538 10.2169466,26.2077321 C10.2421245,23.3487493 10.4402075,20.2784233 10.8073419,16.9957142 C11.1765316,13.7174244 11.794417,9.9049274 12.6638241,5.56160276 C12.8233696,4.73650626 13.5083103,4.04996566 14.7189032,3.50250087 Z" id="Fill-6" fill="#2D2866"></path>
                        <path d="M54.4700257,2.38781473 C58.1221008,2.11590202 60.7917253,2.48789732 62.4750455,3.49444227 C64.1581087,4.50332681 64.962002,6.69812511 64.8887806,10.0827365 C64.7970613,13.4637085 63.9227727,17.1631251 62.2664289,21.1820262 C60.6093142,25.2043066 59.1757174,28.2616349 57.9643538,30.3646692 C57.3575158,31.4148865 56.7311522,31.9623513 56.0808953,32.0185016 C55.4370613,32.0728321 54.815836,31.8703273 54.2141364,31.406568 C53.6188597,30.9493075 53.0736818,30.3498518 52.5796304,29.6170392 C52.0894328,28.8839667 51.6827332,28.2470775 51.3793142,27.7061115 C50.6848676,26.5365749 50.1098874,24.5819749 49.6641364,21.8462107 C49.2183854,19.1083668 49.0421403,16.3226913 49.145164,13.489444 C49.2402233,10.6564567 49.696251,8.13437533 50.5093933,5.92216006 C51.3215079,3.71488393 52.6412905,2.53390932 54.4700257,2.38781473" id="Fill-8" fill="#FFFFFF"></path>
                        <path d="M54.6888162,44.5181417 L53.6256937,42.8822462 C53.448164,42.6087738 53.1491126,42.4413629 52.826168,42.4343441 L50.8895277,42.3922314 C50.0758715,42.3745545 49.6352589,41.4207804 50.1436976,40.7776522 L51.3560889,39.243919 C51.5575119,38.9891633 51.6225119,38.6507021 51.5302787,38.3379765 L50.9745672,36.4600631 C50.7415435,35.6716202 51.5020178,34.954405 52.262749,35.2450344 L54.0770968,35.9380739 C54.3789743,36.0534938 54.7178478,36.0113812 54.9832431,35.8252535 L56.5722747,34.7118672 C57.2418004,34.2426488 58.1523142,34.7542398 58.112749,35.5772567 L58.0187174,37.5318567 C58.0030455,37.8591398 58.1476897,38.1731652 58.4053775,38.3712507 L59.9437964,39.5548249 C60.5917411,40.0534182 60.393915,41.0869984 59.6090336,41.3048405 L57.7430455,41.8224105 C57.4316621,41.9087155 57.1821957,42.1444945 57.0755751,42.4528009 L56.4371364,44.3002996 C56.1684012,45.0773045 55.1358518,45.2059821 54.6888162,44.5181417" id="Fill-10" fill="#FFFFFF"></path>
                        <path d="M9.34936364,61.7915656 C9.34936364,62.1224881 9.2324664,62.4183166 9.00021344,62.6787913 C8.76718972,62.939786 8.48740711,63.0697633 8.16035178,63.0697633 C7.88262451,63.0697633 7.60464032,62.9444651 7.32768379,62.6938687 L4.31019368,59.7909536 L4.31019368,61.8217204 C4.31019368,62.2329689 4.18379051,62.5433549 3.93098419,62.7541782 C3.67817787,62.9644817 3.36371146,63.0697633 2.98732806,63.0697633 C2.61043083,63.0697633 2.29596443,62.9644817 2.04367194,62.7541782 C1.79112253,62.5433549 1.66471937,62.2329689 1.66471937,61.8217204 L1.66471937,53.5647764 C1.66471937,53.1535279 1.79112253,52.842622 2.04367194,52.6323186 C2.29596443,52.4214952 2.61043083,52.3162135 2.98732806,52.3162135 C3.36371146,52.3162135 3.67817787,52.4214952 3.93098419,52.6323186 C4.18379051,52.842622 4.31019368,53.1535279 4.31019368,53.5647764 L4.31019368,58.6630097 L7.0602332,55.8354815 C7.30790119,55.5747468 7.59513439,55.4442495 7.92218972,55.4442495 C8.23973913,55.4442495 8.51900791,55.5674681 8.76205138,55.8131254 C9.00458103,56.0590426 9.1266166,56.3371942 9.1266166,56.6478402 C9.1266166,56.9587461 8.99738735,57.2446964 8.74021344,57.5051711 L7.11958103,59.1296286 L8.96296047,60.9191574 C9.22090514,61.1700137 9.34936364,61.4606432 9.34936364,61.7915656" id="Fill-12" fill="#FFFFFF"></path>
                        <path d="M10.9623656,62.7764044 C10.7095593,62.5710401 10.5831561,62.2629937 10.5831561,61.8517452 L10.5831561,56.6781249 C10.5831561,56.2666165 10.7095593,55.9585701 10.9623656,55.7529458 C11.2144012,55.5473216 11.5291245,55.4443795 11.9060217,55.4443795 C12.2821482,55.4443795 12.5968715,55.5473216 12.8496779,55.7529458 C13.1024842,55.9585701 13.2288874,56.2666165 13.2288874,56.6781249 L13.2288874,61.8517452 C13.2288874,62.2629937 13.1024842,62.5710401 12.8496779,62.7764044 C12.5968715,62.9820286 12.2821482,63.0849707 11.9060217,63.0849707 C11.5291245,63.0849707 11.2144012,62.9820286 10.9623656,62.7764044 M10.843413,54.038284 C10.58033,53.802765 10.4493024,53.4895195 10.4493024,53.0985475 C10.4493024,52.7073155 10.58033,52.3964096 10.843413,52.1660896 C11.1057253,51.9355097 11.4600138,51.8198299 11.9060217,51.8198299 C12.341753,51.8198299 12.6937292,51.9355097 12.9611798,52.1660896 C13.2288874,52.3964096 13.3624842,52.7073155 13.3624842,53.0985475 C13.3624842,53.4895195 13.2309427,53.802765 12.9686304,54.038284 C12.7063182,54.274063 12.3520296,54.3918226 11.9060217,54.3918226 C11.4600138,54.3918226 11.1057253,54.274063 10.843413,54.038284" id="Fill-14" fill="#FFFFFF"></path>
                        <path d="M19.575996,60.6334411 C19.8228933,60.3126568 19.9469842,59.8512371 19.9469842,59.2497017 C19.9469842,58.6580446 19.8228933,58.2046834 19.575996,57.8885784 C19.3275573,57.5729933 18.9712134,57.4149408 18.5054229,57.4149408 C18.0496522,57.4149408 17.697419,57.5703938 17.4500079,57.8810397 C17.2023399,58.1919457 17.0779921,58.6380281 17.0779921,59.2195469 C17.0779921,59.8210823 17.2046522,60.2871813 17.4572016,60.6181037 C17.7100079,60.9490262 18.0591581,61.1146174 18.5054229,61.1146174 C18.9712134,61.1146174 19.3275573,60.9542253 19.575996,60.6334411 M22.1693162,52.6546487 C22.4221225,52.8802894 22.5485257,53.1685793 22.5485257,53.5192583 L22.5485257,61.8518492 C22.5485257,62.2329429 22.4295731,62.5337106 22.1914111,62.7541522 C21.9540198,62.9745939 21.6367273,63.0850747 21.2405613,63.0850747 C20.8736838,63.0850747 20.5738617,62.9873317 20.3410949,62.7915857 C20.1080711,62.5960997 19.9773004,62.3280863 19.9469842,61.9872856 C19.7391383,62.3382246 19.4341779,62.6135167 19.0328735,62.8144617 C18.6315692,63.0148869 18.1878735,63.1152294 17.7025573,63.1152294 C17.0779921,63.1152294 16.520996,62.9522378 16.0300277,62.6262545 C15.540087,62.3005311 15.1554822,61.8417109 14.8785257,61.2497939 C14.6007984,60.6583967 14.4625771,59.9817344 14.4625771,59.2195469 C14.4625771,58.4576195 14.5984862,57.7884958 14.871332,57.2119161 C15.1439209,56.6353364 15.5251858,56.1918535 16.0153834,55.8809476 C16.5063518,55.5700416 17.0684862,55.4145887 17.7025573,55.4145887 C18.1686047,55.4145887 18.5971423,55.5099921 18.9886838,55.700019 C19.3797115,55.8908259 19.6846719,56.1466214 19.9030514,56.4671456 L19.9030514,53.4742861 C19.9030514,53.1233472 20.0191779,52.842596 20.2519447,52.6322926 C20.4849684,52.4214692 20.7996917,52.3161875 21.1956008,52.3161875 C21.5917668,52.3161875 21.9165099,52.4292679 22.1693162,52.6546487" id="Fill-16" fill="#FFFFFF"></path>
                        <path d="M30.782998,62.001999 C30.782998,62.6638439 30.386832,62.9947664 29.5939862,62.9947664 L24.9119308,62.9947664 C24.5650929,62.9947664 24.2822273,62.8848055 24.0646186,62.6638439 C23.8462391,62.4434023 23.7375632,62.1774685 23.7375632,61.8665626 C23.7375632,61.5359001 23.8611403,61.2301933 24.1093221,60.9491821 L27.2306067,57.5650907 L24.8376818,57.5650907 C24.044836,57.5650907 23.64867,57.2341682 23.64867,56.5723233 C23.64867,55.9208766 24.044836,55.5951533 24.8376818,55.5951533 L29.3411798,55.5951533 C29.6880178,55.5951533 29.9708834,55.7053741 30.1884921,55.9258158 C30.4066146,56.1467773 30.5152905,56.4121912 30.5152905,56.7228372 C30.5152905,57.0438813 30.3919704,57.344649 30.1443024,57.6254002 L27.0078597,61.024569 L29.5939862,61.024569 C30.386832,61.024569 30.782998,61.3502924 30.782998,62.001999" id="Fill-18" fill="#FFFFFF"></path>
                        <path d="M38.185419,62.077152 C38.185419,62.4286109 38.0515652,62.6890856 37.7841146,62.8593559 C37.516664,63.0296263 37.1346285,63.0998141 36.6392925,63.0696594 L36.2233439,63.0397646 C35.3310711,62.9698367 34.6551225,62.6963643 34.1942134,62.2201271 C33.7335613,61.7438899 33.5033636,61.0797054 33.5033636,60.2275736 L33.5033636,57.5651167 L33.072,57.5651167 C32.2791542,57.5651167 31.8829881,57.2341942 31.8829881,56.5723493 C31.8829881,55.9209026 32.2791542,55.5949193 33.072,55.5949193 L33.5033636,55.5949193 L33.5033636,54.6174893 C33.5033636,54.2363956 33.6218024,53.9330283 33.8599644,53.7073876 C34.0978696,53.4817468 34.4197866,53.3689264 34.8262292,53.3689264 C35.2319012,53.3689264 35.5545889,53.4817468 35.7919802,53.7073876 C36.0298854,53.9330283 36.1490949,54.2363956 36.1490949,54.6174893 L36.1490949,55.5949193 L36.9663478,55.5949193 C37.7591937,55.5949193 38.1553597,55.9209026 38.1553597,56.5723493 C38.1553597,57.2341942 37.7591937,57.5651167 36.9663478,57.5651167 L36.1490949,57.5651167 L36.1490949,60.4526945 C36.1490949,60.6435013 36.2056166,60.8041534 36.3194308,60.9343907 C36.433502,61.0646281 36.5796877,61.1348159 36.7582451,61.1446941 L37.1896087,61.1748489 C37.8532253,61.2148819 38.185419,61.5156496 38.185419,62.077152" id="Fill-20" fill="#FFFFFF"></path>
                        <path d="M39.7984209,62.7764044 C39.5456146,62.5710401 39.4192115,62.2629937 39.4192115,61.8517452 L39.4192115,56.6781249 C39.4192115,56.2666165 39.5456146,55.9585701 39.7984209,55.7529458 C40.0504565,55.5473216 40.3651798,55.4443795 40.7420771,55.4443795 C41.1184605,55.4443795 41.4329269,55.5473216 41.6857332,55.7529458 C41.9385395,55.9585701 42.0649427,56.2666165 42.0649427,56.6781249 L42.0649427,61.8517452 C42.0649427,62.2629937 41.9385395,62.5710401 41.6857332,62.7764044 C41.4329269,62.9820286 41.1184605,63.0849707 40.7420771,63.0849707 C40.3651798,63.0849707 40.0504565,62.9820286 39.7984209,62.7764044 M39.6794684,54.038284 C39.4163854,53.802765 39.2856146,53.4895195 39.2856146,53.0985475 C39.2856146,52.7073155 39.4163854,52.3964096 39.6794684,52.1660896 C39.9417806,51.9355097 40.2960692,51.8198299 40.7420771,51.8198299 C41.1778083,51.8198299 41.5297846,51.9355097 41.7974921,52.1660896 C42.0649427,52.3964096 42.1985395,52.7073155 42.1985395,53.0985475 C42.1985395,53.4895195 42.066998,53.802765 41.8046858,54.038284 C41.5423735,54.274063 41.188085,54.3918226 40.7420771,54.3918226 C40.2960692,54.3918226 39.9417806,54.274063 39.6794684,54.038284" id="Fill-22" fill="#FFFFFF"></path>
                        <path d="M54.4909901,56.1441518 C54.9274921,56.6305272 55.1451008,57.4501647 55.1451008,58.6030642 L55.1451008,61.8519791 C55.1451008,62.2629677 55.0186976,62.571274 54.7666621,62.7763784 C54.5138557,62.9820026 54.1993893,63.0849447 53.8222352,63.0849447 C53.4461087,63.0849447 53.1313854,62.9820026 52.878836,62.7763784 C52.6260296,62.571274 52.4996265,62.2629677 52.4996265,61.8519791 L52.4996265,58.5430146 C52.4996265,58.1421643 52.4302589,57.8608932 52.2915237,57.7005011 C52.1525316,57.540109 51.9498241,57.4600429 51.6823735,57.4600429 C51.3347648,57.4600429 51.0575514,57.5856011 50.8497055,57.8361975 C50.6418597,58.0867939 50.5372945,58.4325338 50.5372945,58.8736771 L50.5372945,61.8519791 C50.5372945,62.2629677 50.4132036,62.571274 50.1655356,62.7763784 C49.9178676,62.9820026 49.6010889,63.0849447 49.2144289,63.0849447 C48.8375316,63.0849447 48.5230652,62.9820026 48.2710296,62.7763784 C48.0182233,62.571274 47.8918202,62.2629677 47.8918202,61.8519791 L47.8918202,58.5430146 C47.8918202,58.1421643 47.8219387,57.8608932 47.6837174,57.7005011 C47.5449822,57.540109 47.341247,57.4600429 47.0737964,57.4600429 C46.7269585,57.4600429 46.4520573,57.5856011 46.2493498,57.8361975 C46.0456146,58.0867939 45.9443893,58.4325338 45.9443893,58.8736771 L45.9443893,61.8519791 C45.9443893,62.2629677 45.8179862,62.571274 45.5651798,62.7763784 C45.3123735,62.9820026 44.9976502,63.0849447 44.6215237,63.0849447 C44.2446265,63.0849447 43.9299032,62.9820026 43.6778676,62.7763784 C43.4250613,62.571274 43.2986581,62.2629677 43.2986581,61.8519791 L43.2986581,56.6479442 C43.2986581,56.2567122 43.4294289,55.9585441 43.6925119,55.7529198 C43.955081,55.5475556 44.2695474,55.4443535 44.636168,55.4443535 C44.9830059,55.4443535 45.2725514,55.5374173 45.5055751,55.7227651 C45.7385988,55.9083728 45.8598636,56.1766461 45.8701403,56.5275851 C46.3557134,55.7856741 47.0989743,55.4147187 48.099666,55.4147187 C49.1602194,55.4147187 49.8685395,55.8509228 50.2251403,56.7230711 C50.4725514,56.3222208 50.8047451,56.0035163 51.2214644,55.7679972 C51.637413,55.5324782 52.1078281,55.4147187 52.6332233,55.4147187 C53.435832,55.4147187 54.0552589,55.6577764 54.4909901,56.1441518" id="Fill-24" fill="#FFFFFF"></path>
                        <path d="M59.1582727,57.557656 C58.95017,57.7832967 58.8260791,58.1118796 58.7865138,58.5428846 L61.1203478,58.5428846 C61.061,57.6605981 60.6838458,57.2194548 59.9909407,57.2194548 C59.6441028,57.2194548 59.3663755,57.3320152 59.1582727,57.557656 M63.0898735,60.8892366 C63.2332332,61.0696452 63.30517,61.3054242 63.30517,61.5960536 C63.30517,61.9971639 63.1119684,62.3028707 62.7253083,62.5131741 C62.388747,62.6839644 61.9897549,62.8271995 61.5291028,62.9418396 C61.0681937,63.0572595 60.6450514,63.1152294 60.2583913,63.1152294 C59.4457628,63.1152294 58.7371858,62.9597765 58.1324032,62.6488705 C57.5283913,62.3382246 57.0623439,61.8918822 56.7352885,61.3101034 C56.4082332,60.7285845 56.2450909,60.0467231 56.2450909,59.2647791 C56.2450909,58.5228681 56.4010395,57.8584237 56.7131937,57.2719657 C57.024834,56.6855077 57.4615929,56.229287 58.021415,55.9033037 C58.5807233,55.5775803 59.2124822,55.4145887 59.9166917,55.4145887 C60.6000909,55.4145887 61.1997352,55.5648425 61.7148538,55.8656102 C62.2302292,56.1663779 62.6292213,56.5929637 62.9113162,57.1443279 C63.1941818,57.695692 63.3354862,58.3424595 63.3354862,59.0843705 C63.3354862,59.3152103 63.283332,59.4927594 63.1787668,59.6180576 C63.0752292,59.7438758 62.9239051,59.8062649 62.7253083,59.8062649 L58.8019289,59.8062649 C58.8707826,60.2871813 59.024419,60.6334411 59.262581,60.8440044 C59.4999723,61.0548278 59.8519486,61.1598495 60.317996,61.1598495 C60.565664,61.1598495 60.7932925,61.1322943 61.0013953,61.0769239 C61.2092411,61.0220735 61.4422648,60.944347 61.7002095,60.8440044 C61.8487075,60.7836949 61.9948933,60.7311841 62.138253,60.6859519 C62.2823834,60.6409797 62.413668,60.6181037 62.5321067,60.6181037 C62.7599921,60.6181037 62.946,60.708568 63.0898735,60.8892366" id="Fill-26" fill="#FFFFFF"></path>
                    </g>
                </g>
            </g>
        </g>
    </g>
</svg>