<?xml version="1.0" encoding="UTF-8"?>
<svg viewBox="0 0 430 177" version="1.1" xmlns="http://www.w3.org/2000/svg" xmlns:xlink="http://www.w3.org/1999/xlink">
  <g id="Artboard" stroke="none" stroke-width="1" fill="none" fill-rule="evenodd">
    <path d="M46.6362045,43.2248008 C64.4315983,40.9748085 77.1133732,55.9065757 77.1133732,74.9292381 L77.1133732,134.247218 L51.5452787,134.247218 L51.5452787,82.0883046 C51.5452787,72.2701563 46.8407493,65.3156345 37.4316905,66.3383583 C32.9317058,66.7474478 28.6362659,70.0201639 25.5680946,73.7019696 L25.5680946,134.247218 L0,134.247218 L0,44.4520694 L24.5453708,43.0202561 L25.5680946,58.3611128 C30.6817135,50.1793226 38.4544142,44.2475246 46.6362045,43.2248008 Z M183.476986,45.4747932 L182.863352,68.1792611 L168.136129,67.3610821 C172.227024,73.9065143 175.090651,81.6792151 175.090651,90.2700948 C175.090651,99.2700641 172.227024,107.656399 167.31795,114.610921 C172.022479,120.542719 175.49974,128.31542 175.295196,136.906299 C175.090651,158.997133 158.522526,176.997072 134.1817,176.997072 C112.499955,176.997072 99.4090909,161.656215 95.3181958,148.769895 L115.568127,139.974471 C117.409029,144.474455 123.340827,153.678969 134.1817,153.678969 C143.795303,153.678969 150.136191,146.724448 150.136191,136.906299 C150.136191,133.429038 149.522556,130.769957 148.499832,128.519964 C144.204393,129.951778 139.704408,130.769957 134.999879,130.769957 C110.454508,130.769957 93.8863825,110.110936 93.8863825,86.9973787 C93.8863825,65.3156345 110.454508,43.2248008 134.999879,43.2248008 L135.818058,43.2248008 L183.476986,45.4747932 Z M118.227209,86.9973787 C118.227209,98.2473403 123.954462,108.679123 134.999879,108.679123 C146.045295,108.679123 151.977093,98.2473403 151.977093,86.9973787 C151.977093,75.5428724 146.045295,65.1110898 134.999879,65.1110898 C123.954462,65.1110898 118.227209,75.5428724 118.227209,86.9973787 Z M245.863477,43.2248008 C263.658871,40.9748085 276.340646,55.9065757 276.340646,74.9292381 L276.340646,134.247218 L250.772551,134.247218 L250.772551,82.0883046 C250.772551,72.2701563 246.068022,65.3156345 236.658963,66.3383583 C232.158979,66.7474478 227.863539,70.0201639 224.795367,73.7019696 L224.795367,134.247218 L199.227273,134.247218 L199.227273,44.4520694 L223.772644,43.0202561 L224.795367,58.3611128 C229.908986,50.1793226 237.681687,44.2475246 245.863477,43.2248008 Z M323.999915,59.5883814 C328.295355,49.3611435 335.863511,41.7929875 349.15892,43.2248008 L348.74983,70.6337982 C331.363526,68.5883506 324.20446,78.406499 323.999915,100.088243 L323.999915,134.247218 L298.43182,134.247218 L298.43182,44.2475246 L322.568102,43.0202561 L323.999915,57.7474785 L323.999915,59.5883814 Z M394.568079,135.269941 C373.909058,135.269941 360.613649,120.338174 358.977291,111.747294 L382.090848,104.383683 C384.136296,108.474578 388.227191,113.588197 394.977168,113.588197 C402.749869,113.588197 405.408951,108.270033 403.977137,104.792773 C399.477153,94.7700795 360.818194,98.0427956 360.818194,71.4519772 C360.818194,54.2702177 375.954506,43.2248008 394.568079,43.2248008 C411.340749,43.2248008 423.613434,53.4520387 429.749777,66.7474478 L407.454398,73.7019696 C406.022585,69.6110744 401.727145,64.2929108 395.386258,64.2929108 C387.613557,64.2929108 385.772654,69.8156192 386.590833,72.474701 C389.45446,82.2928493 428.931598,76.9746857 428.931598,107.042765 C428.931598,123.201801 412.977107,135.269941 394.568079,135.269941 Z" id="ngnrs" fill="#FFFFFF" fill-rule="nonzero"></path>
  </g>
</svg>