
<svg width="116px" height="127px" viewBox="0 0 116 127" version="1.1" xmlns="http://www.w3.org/2000/svg" xmlns:xlink="http://www.w3.org/1999/xlink">
    <g id="Page-1" stroke="none" stroke-width="1" fill="none" fill-rule="evenodd">
        <g id="Product-page-new_mob(4)" transform="translate(-130.000000, -209.000000)">
            <g id="popup" transform="translate(16.000000, 176.000000)">
                <g id="illustration" transform="translate(114.000000, 33.000000)">
                    <g id="Group-39" transform="translate(28.000000, 39.000000)" stroke="#000000" stroke-linecap="round" stroke-linejoin="round" stroke-width="3">
                        <rect id="Rectangle" fill="#44A0E0" transform="translate(13.374369, 15.374369) rotate(-45.000000) translate(-13.374369, -15.374369) " x="7.37436867" y="3.87436867" width="12" height="23" rx="1"></rect>
                        <rect id="Rectangle-Copy-6" fill="#FD8292" transform="translate(21.093267, 25.168584) rotate(-330.000000) translate(-21.093267, -25.168584) " x="10.5932667" y="2.16858429" width="21" height="46" rx="1"></rect>
                        <rect id="Rectangle-Copy-7" fill="#F4C84D" transform="translate(44.704427, 19.239961) rotate(-15.000000) translate(-44.704427, -19.239961) " x="36.2044266" y="5.73996054" width="17" height="27" rx="1"></rect>
                    </g>
                    <g id="shopping-cart-2" transform="translate(5.000000, 42.000000)">
                        <path d="M20.3082275,21.0111585 L25.5576324,53.8587822 C26.2490845,58.1779496 29.9555968,61.3546809 34.3075562,61.3546809 L70.4463959,61.3546809 C74.7983551,61.3546809 78.5048676,58.1779496 79.1963195,53.8587822 L84.4457245,21.0111585 L20.3082275,21.0111585 Z M38.6897277,55.231086 C36.8193055,55.4257487 35.1459503,54.0589673 34.9543761,52.1786073 L32.5984955,29.247052 C32.5861358,29.1283215 32.5806427,29.0109717 32.5806427,28.8943119 C32.5806427,27.159604 33.8845825,25.6720213 35.6348419,25.4918545 C37.5052642,25.2971918 39.1786193,26.6646635 39.3701934,28.5450234 L41.724701,51.4758885 C41.918335,53.3562484 40.5580903,55.0364231 38.6897277,55.231086 Z M55.7810211,51.8093004 C55.7810211,53.6986341 54.256668,55.231086 52.3773193,55.231086 C50.4979706,55.231086 48.9729308,53.6986341 48.9729308,51.8093004 L48.9729308,28.7555629 C48.9729308,26.8662292 50.4979706,25.3337773 52.3773193,25.3337773 C53.3159638,25.3337773 54.1687774,25.7168903 54.7833252,26.3367739 C55.3992462,26.9545868 55.7810211,27.8119314 55.7810211,28.7555629 L55.7810211,51.8093004 Z M72.1561431,29.247052 L69.8002625,52.1786073 C69.6080018,54.0589673 67.9346466,55.4257487 66.0642242,55.231086 C64.1958618,55.0364231 62.8363037,53.3562484 63.0299377,51.4758885 L65.3837586,28.5450234 C65.5753326,26.6646635 67.2486877,25.2971918 69.1191102,25.4918545 C70.8693696,25.6720213 72.173996,27.159604 72.173996,28.8943119 C72.173996,29.0109717 72.1685029,29.1283215 72.1561431,29.247052 L72.1561431,29.247052 Z" id="Shape" fill="#938BD4" fill-rule="nonzero"></path>
                        <g id="Group" transform="translate(1.230469, 1.237006)" fill="#F4C84D">
                            <path d="M38.6183166,76.6874838 C38.6183166,79.7641226 36.1381532,82.2581536 33.077774,82.2581536 C30.017395,82.2581536 27.5365448,79.7641226 27.5365448,76.6874838 C27.5365448,73.6108449 30.017395,71.1175042 33.077774,71.1175042 C36.1381532,71.1175042 38.6183166,73.6108449 38.6183166,76.6874838 Z" id="Path"></path>
                            <path d="M71.9158173,76.6874838 C71.9158173,79.7641226 69.434967,82.2581536 66.374588,82.2581536 C63.3148956,82.2581536 60.8340454,79.7641226 60.8340454,76.6874838 C60.8340454,73.6108449 63.3148956,71.1175042 66.374588,71.1175042 C69.434967,71.1175042 71.9158173,73.6108449 71.9158173,76.6874838 Z" id="Path"></path>
                            <path d="M11.1950684,5.68456833 C11.1950684,8.76051687 8.71421818,11.2545478 5.6545258,11.2545478 C2.59414664,11.2545478 0.113296465,8.76051687 0.113296465,5.68456833 C0.113296465,2.60792936 2.59414664,0.11389841 5.6545258,0.11389841 C8.71421818,0.11389841 11.1950684,2.60792936 11.1950684,5.68456833 Z" id="Path"></path>
                        </g>
                        <path d="M88.6562348,17.768849 C88.6562348,19.5594709 87.2122192,21.0111585 85.4317475,21.0111585 L20.3082275,21.0111585 L19.2727661,14.52723 L85.4317475,14.52723 C87.2122192,14.52723 88.6562348,15.9782274 88.6562348,17.768849 Z" id="Path" fill="#716BA2"></path>
                        <path d="M57.1247863,51.8093004 L57.1247863,28.7555629 C57.1247863,26.1241635 54.994812,23.9828726 52.3773193,23.9828726 C49.7591401,23.9828726 47.6298524,26.1241635 47.6298524,28.7555629 L47.6298524,51.8093004 C47.6298524,54.4406996 49.7591401,56.5819906 52.3773193,56.5819906 C54.994812,56.5819906 57.1247863,54.4406996 57.1247863,51.8093004 Z M50.3166962,51.8093004 L50.3166962,28.7555629 C50.3166962,27.6138173 51.240921,26.6846819 52.3773193,26.6846819 C53.5130311,26.6846819 54.4372559,27.6138173 54.4372559,28.7555629 L54.4372559,51.8093004 C54.4372559,52.951046 53.5130311,53.8801814 52.3773193,53.8801814 C51.240921,53.8801814 50.3166962,52.951046 50.3166962,51.8093004 Z" id="Shape" fill="#000000" fill-rule="nonzero"></path>
                        <path d="M65.9275819,56.5750878 C66.09375,56.5923451 66.2592315,56.6006286 66.4240264,56.6006286 C67.5102997,56.6006286 68.5553741,56.2292505 69.4095611,55.5306734 C70.3935243,54.7264813 71.0073853,53.5854259 71.1378478,52.3173565 L73.4916688,29.385801 C73.6221313,28.1170413 73.2534028,26.8738225 72.4534608,25.8846315 C71.6535186,24.8954408 70.5184937,24.2790086 69.2564393,24.1478529 C67.995758,24.016697 66.7591095,24.3873846 65.7744599,25.1915769 C64.7904969,25.995769 64.1773223,27.1375146 64.0468598,28.4055842 L61.6923524,51.3371393 C61.5625762,52.6052089 61.9313048,53.8484278 62.731247,54.8376185 C63.5305024,55.8268093 64.6662139,56.4439319 65.9275819,56.5750878 L65.9275819,56.5750878 Z M64.3654633,51.6146375 L66.7192841,28.6823919 C66.7762755,28.1322277 67.0426942,27.6372872 67.469101,27.2879987 C67.8398896,26.9849597 68.2937622,26.8241213 68.7648009,26.8241213 C68.8362121,26.8241213 68.90831,26.8275728 68.9804077,26.835166 C69.5276641,26.89177 70.0206757,27.159604 70.3674316,27.5889667 C70.7148742,28.0183293 70.8748627,28.5574486 70.8185577,29.108303 L68.4640503,52.0398584 C68.4077453,52.5907126 68.141327,53.0856533 67.7142334,53.4342516 C67.2871398,53.7835401 66.7515565,53.9443786 66.2029267,53.8877744 C65.6556701,53.8304802 65.1633453,53.5626461 64.8159028,53.1339738 C64.4691466,52.7046112 64.3091583,52.1648015 64.3654633,51.6146375 L64.3654633,51.6146375 Z" id="Shape" fill="#000000" fill-rule="nonzero"></path>
                        <path d="M35.3450776,55.5306734 C36.1992646,56.2292505 37.2443389,56.6006286 38.3306122,56.6006286 C38.4954071,56.6006286 38.6608887,56.5923451 38.8270568,56.5750878 C40.0884247,56.4439319 41.2234497,55.8268093 42.0233917,54.8376185 C42.8233338,53.8484278 43.1920624,52.6052089 43.0622863,51.3371393 L40.7077789,28.4055842 C40.5773163,27.1375146 39.9641418,25.995769 38.9801788,25.1915769 C37.9955292,24.3873846 36.7595673,24.016697 35.4981994,24.1478529 C34.236145,24.2790086 33.10112,24.8954408 32.3011779,25.8846315 C31.5012359,26.8738225 31.1325073,28.1170413 31.2629699,29.385801 L33.6174775,52.3173565 C33.7472534,53.5854259 34.3611144,54.7264813 35.3450776,55.5306734 L35.3450776,55.5306734 Z M34.3865204,27.5889667 C34.733963,27.159604 35.2262879,26.89177 35.7735444,26.835166 C35.8463287,26.8275728 35.9177398,26.8241213 35.989151,26.8241213 C36.4608765,26.8241213 36.9140625,26.9849597 37.2848511,27.2879987 C37.7119445,27.6372872 37.9783631,28.1322277 38.034668,28.6823919 L40.3891754,51.6146375 C40.4454804,52.1648015 40.285492,52.7046112 39.9380493,53.1339738 C39.5912934,53.5626461 39.0982818,53.8304802 38.5510254,53.8877744 C38.0023956,53.9443786 37.4668121,53.7835401 37.0397187,53.4342516 C36.6126251,53.0856533 36.3468934,52.5900224 36.2899018,52.0398584 L33.936081,29.108303 C33.8790894,28.5574486 34.0390777,28.0183293 34.3865204,27.5889667 L34.3865204,27.5889667 Z" id="Shape" fill="#000000" fill-rule="nonzero"></path>
                        <path d="M90,17.768849 C90,15.2361616 87.9503632,13.1763254 85.4317475,13.1763254 L75.871582,13.1763254 C75.1293183,13.1763254 74.5278168,13.7810226 74.5278168,14.52723 C74.5278168,15.2727472 75.1293183,15.8781347 75.871582,15.8781347 L85.4317475,15.8781347 C86.4685821,15.8781347 87.3124696,16.7258154 87.3124696,17.768849 C87.3124696,18.8118828 86.4685821,19.6602537 85.4317475,19.6602537 L21.4535522,19.6602537 L20.8493042,15.8781347 L70.4958344,15.8781347 C71.2380981,15.8781347 71.8395996,15.2727472 71.8395996,14.52723 C71.8395996,13.7810226 71.2380981,13.1763254 70.4958344,13.1763254 L20.4174042,13.1763254 L20.0177764,10.6767721 C19.5446777,7.71817336 17.0377349,5.57066992 14.0563202,5.57066992 L13.6367798,5.57066992 C13.0098725,2.39877051 10.2207183,0 6.88430777,0 C3.08853141,0 -2.84217094e-14,3.10494079 -2.84217094e-14,6.92157456 C-2.84217094e-14,10.7375179 3.08853141,13.8424587 6.88499455,13.8424587 C10.2214051,13.8424587 13.0098725,11.4436882 13.6367798,8.27178896 L14.0570068,8.27178896 C15.7111358,8.27178896 17.1022797,9.46392615 17.3652648,11.1054444 L22.6043701,43.8895611 C22.7217865,44.6261045 23.4111786,45.127948 24.1438293,45.0092175 C24.8764801,44.8911772 25.3749848,44.1981224 25.2575684,43.4608888 L23.7009429,33.7229161 C23.7009429,33.7215356 23.7009429,33.7201549 23.7009429,33.7187744 L21.8854522,22.3613727 L82.8691864,22.3613727 L77.8690338,53.6447911 C77.279892,57.3295787 74.1584014,60.0037763 70.4463959,60.0037763 L34.3082428,60.0037763 C30.5955506,60.0037763 27.4740601,57.3295787 26.8849181,53.6447911 L26.1618804,49.1185356 C26.0437774,48.3819922 25.3536987,47.8801487 24.6217345,47.9988794 C23.8890839,48.1176097 23.3905792,48.8106647 23.5086822,49.5472079 L24.2324067,54.0734636 C24.609375,56.4356484 25.7546997,58.491343 27.3882294,60.0037763 L24.9664307,60.0037763 C21.459732,60.0037763 18.6067199,62.8719465 18.6067199,66.3972762 C18.6067199,69.9232962 21.459732,72.7914663 24.9664307,72.7914663 L29.6953583,72.7914663 C28.3014679,74.0588456 27.423935,75.8901946 27.423935,77.9244901 C27.423935,81.7404334 30.5124664,84.8453742 34.3082428,84.8453742 C38.1047059,84.8453742 41.1932373,81.7411237 41.1932373,77.9244901 C41.1932373,75.8901946 40.3157043,74.0588456 38.9211274,72.7914663 L62.9928589,72.7914663 C61.5982818,74.0588456 60.7214355,75.8901946 60.7214355,77.9244901 C60.7214355,81.7404334 63.8092804,84.8453742 67.6057433,84.8453742 C71.4022065,84.8453742 74.4900513,81.7411237 74.4900513,77.9244901 C74.4900513,75.8901946 73.613205,74.0588456 72.2186279,72.7914663 L76.2052918,72.7914663 C76.9475556,72.7914663 77.5490571,72.1867692 77.5490571,71.4405616 C77.5490571,70.6943542 76.9475556,70.089657 76.2052918,70.089657 L24.9671173,70.089657 C22.9421997,70.089657 21.2942505,68.4336424 21.2942505,66.3972762 C21.2942505,64.3616003 22.9415131,62.7055857 24.9671173,62.7055857 L70.4463959,62.7055857 C75.4850006,62.7055857 79.7229766,59.0753313 80.522232,54.0734636 L85.5917358,22.357231 C88.0368804,22.2723249 90,20.2476936 90,17.768849 Z M6.88499455,11.1406494 C4.5703125,11.1406494 2.68753043,9.24786411 2.68753043,6.92157456 C2.68753043,4.59459459 4.5703125,2.70180929 6.88499455,2.70180929 C9.19898982,2.70180929 11.0824585,4.59459459 11.0824585,6.92157456 C11.0824585,9.24786411 9.19898982,11.1406494 6.88499455,11.1406494 Z M34.3082428,82.1442552 C31.9935607,82.1442552 30.1107788,80.2514699 30.1107788,77.9244901 C30.1107788,75.5975101 31.9935607,73.7047248 34.3082428,73.7047248 C36.6222382,73.7047248 38.5057069,75.5982004 38.5057069,77.9244901 C38.5057069,80.2514699 36.6222382,82.1442552 34.3082428,82.1442552 Z M67.6050567,82.1442552 C65.2910614,82.1442552 63.4075928,80.2514699 63.4075928,77.9244901 C63.4075928,75.5975101 65.2910614,73.7047248 67.6050567,73.7047248 C69.9197388,73.7047248 71.8025207,75.5982004 71.8025207,77.9244901 C71.8025207,80.2514699 69.9197388,82.1442552 67.6050567,82.1442552 Z" id="Shape" fill="#000000" fill-rule="nonzero"></path>
                    </g>
                    <g id="Group-14" transform="translate(64.000000, 74.000000)" stroke="#000000" stroke-linecap="round" stroke-linejoin="round" stroke-width="3">
                        <path d="M18.5,32 C25.9558441,32 32,25.9558441 32,18.5 C32,11.0441559 25.9558441,5 18.5,5 C11.0441559,5 5,11.0441559 5,18.5 C5,25.9558441 11.0441559,32 18.5,32 Z" id="Oval" fill="#FFFFFF" stroke-dasharray="70,6" transform="translate(18.500000, 18.500000) rotate(-120.000000) translate(-18.500000, -18.500000) "></path>
                        <polyline id="Path-6" points="12 17.3636241 16.646019 23 27.1107912 14"></polyline>
                    </g>
                    <g id="Group-19">
                        <ellipse id="Oval" stroke="#000000" stroke-width="3" fill="#EF4A6E" cx="102.139175" cy="38.1443662" rx="4.13917526" ry="4.1443662"></ellipse>
                        <ellipse id="Oval-Copy-3" stroke="#000000" stroke-width="3" fill="#44A0E0" cx="110.139175" cy="72.1443662" rx="4.13917526" ry="4.1443662"></ellipse>
                        <ellipse id="Oval-Copy-7" stroke="#000000" stroke-width="3" fill="#44A0E0" cx="23.0103093" cy="18.0140845" rx="3.01030928" ry="3.01408451"></ellipse>
                        <path d="M88.0996564,8.5401196 L90.1067299,8.5401196 L90.1067299,10.6748826 C90.1067299,11.8540302 91.0054076,12.8098592 92.1136027,12.8098592 C93.2219986,12.8098592 94.1204756,11.8540302 94.1204756,10.6748826 L94.1204756,8.5401196 L96.1271478,8.5401196 C97.235343,8.5401196 98.1340206,7.58407711 98.1340206,6.40514308 C98.1340206,5.22620904 97.235343,4.27016655 96.1271478,4.27016655 L94.1204756,4.27016655 L94.1204756,2.13497653 C94.1204756,0.956042488 93.2219986,0 92.1136027,0 C91.0054076,0 90.1067299,0.956042488 90.1067299,2.13497653 L90.1067299,4.27016655 L88.0996564,4.27016655 C86.9914612,4.27016655 86.0927835,5.22620904 86.0927835,6.40514308 C86.0927835,7.58429061 86.9914612,8.5401196 88.0996564,8.5401196 Z" id="Path" fill="#000000"></path>
                        <path d="M2.00687285,70.5401196 L4.01394639,70.5401196 L4.01394639,72.6748826 C4.01394639,73.8540302 4.91262405,74.8098592 6.02081924,74.8098592 C7.12921512,74.8098592 8.0276921,73.8540302 8.0276921,72.6748826 L8.0276921,70.5401196 L10.0343643,70.5401196 C11.1425595,70.5401196 12.0412371,69.5840771 12.0412371,68.4051431 C12.0412371,67.226209 11.1425595,66.2701665 10.0343643,66.2701665 L8.0276921,66.2701665 L8.0276921,64.1349765 C8.0276921,62.9560425 7.12921512,62 6.02081924,62 C4.91262405,62 4.01394639,62.9560425 4.01394639,64.1349765 L4.01394639,66.2701665 L2.00687285,66.2701665 C0.898677663,66.2701665 0,67.226209 0,68.4051431 C0,69.5842906 0.898677663,70.5401196 2.00687285,70.5401196 Z" id="Path-Copy" fill="#000000"></path>
                        <path d="M59.1970891,22.9507042 C60.3674974,22.9507042 61.3220133,21.9352592 61.3220133,20.6901408 C61.3220133,19.4450225 60.3674974,18.4295775 59.1970891,18.4295775 C58.0266809,18.4295775 57.0721649,19.4450225 57.0721649,20.6901408 C57.0723774,21.9350331 58.0268934,22.9507042 59.1970891,22.9507042 Z" id="Path-Copy-6" fill="#000000"></path>
                    </g>
                </g>
            </g>
        </g>
    </g>
</svg>