<?xml version="1.0" encoding="UTF-8"?>
<svg width="16px" height="16px" viewBox="0 0 16 16" version="1.1" xmlns="http://www.w3.org/2000/svg" xmlns:xlink="http://www.w3.org/1999/xlink">
    <g id="Symbols" stroke="none" stroke-width="1" fill="none" fill-rule="evenodd">
        <g id="accessory-group" transform="translate(-530.000000, -10.000000)">
            <g id="Group-139">
                <g id="edit">
                    <g transform="translate(528.000000, 8.000000)">
                        <polygon id="Path" points="0 0 20 0 20 20 0 20"></polygon>
                        <path d="M4.16666667,15.8333333 L5.345,15.8333333 L13.1066667,8.07166667 L11.9283333,6.89333333 L4.16666667,14.655 L4.16666667,15.8333333 Z M17.5,17.5 L2.5,17.5 L2.5,13.9641667 L13.6958333,2.76833333 C14.0212499,2.44301505 14.5487501,2.44301505 14.8741667,2.76833333 L17.2316667,5.12583333 C17.5569849,5.45124988 17.5569849,5.97875012 17.2316667,6.30416667 L7.7025,15.8333333 L17.5,15.8333333 L17.5,17.5 Z M13.1066667,5.715 L14.285,6.89333333 L15.4633333,5.715 L14.285,4.53666667 L13.1066667,5.715 L13.1066667,5.715 Z" id="Shape" fill="#FEDB02" fill-rule="nonzero"></path>
                    </g>
                </g>
            </g>
        </g>
    </g>
</svg>