<?xml version="1.0" encoding="UTF-8"?>
<svg width="18px" height="18px" viewBox="0 0 18 18" version="1.1" xmlns="http://www.w3.org/2000/svg" xmlns:xlink="http://www.w3.org/1999/xlink">
    <!-- Generator: Sketch 61.2 (89653) - https://sketch.com -->
    <g id="Symbols" stroke="none" stroke-width="1" fill="none" fill-rule="evenodd">
        <g id="Group-139/2" transform="translate(-573.000000, -9.000000)">
            <g id="link" transform="translate(572.000000, 8.000000)">
                <polygon id="Path" points="0 0 20 0 20 20 0 20"></polygon>
                <path d="M15.3033333,12.9466667 L14.125,11.7666667 L15.3033333,10.5883333 C16.3636242,9.53728909 16.7805468,7.99928908 16.3962475,6.55664397 C16.0119483,5.11399886 14.8851678,3.98721839 13.4425227,3.60291915 C11.9998776,3.21861991 10.4618776,3.63554242 9.41083333,4.69583333 L8.2325,5.875 L7.05333333,4.69666667 L8.23333333,3.51833333 C10.5115079,1.24015874 14.2051587,1.24015874 16.4833333,3.51833333 C18.7615079,5.79650793 18.7615079,9.49015874 16.4833333,11.7683333 L15.3041667,12.9466667 L15.3033333,12.9466667 Z M12.9466667,15.3033333 L11.7675,16.4816667 C9.48932539,18.7598412 5.79567465,18.7598411 3.51750009,16.4816666 C1.23932553,14.203492 1.23932549,10.5098413 3.5175,8.23166667 L4.69666667,7.05333333 L5.875,8.23333333 L4.69666667,9.41166667 C3.63637575,10.4627109 3.21945325,12.0007109 3.60375249,13.443356 C3.98805173,14.8860011 5.11483219,16.0127816 6.5574773,16.3970808 C8.00012241,16.7813801 9.53812243,16.3644576 10.5891667,15.3041667 L11.7675,14.1258333 L12.9466667,15.3041667 L12.9466667,15.3033333 Z M12.3566667,6.46416667 L13.5358333,7.64333333 L7.64333333,13.535 L6.46416667,12.3566667 L12.3566667,6.465 L12.3566667,6.46416667 Z" id="Shape" fill="#3BC129" fill-rule="nonzero"></path>
            </g>
        </g>
    </g>
</svg>