<?xml version="1.0" encoding="UTF-8"?>
<svg width="18px" height="18px" viewBox="0 0 18 18" version="1.1" xmlns="http://www.w3.org/2000/svg" xmlns:xlink="http://www.w3.org/1999/xlink">
    <!-- Generator: Sketch 61.2 (89653) - https://sketch.com -->
    <defs>
        <path d="M7.61111702,5.58037234 C8.17218085,6.14047872 8.17218085,7.05101064 7.61111702,7.61111702 C7.05005319,8.17218085 6.14143617,8.17218085 5.58037234,7.61111702 C5.01930851,7.05101064 5.01930851,6.14047872 5.58037234,5.58037234 C6.14143617,5.01930851 7.05005319,5.01930851 7.61111702,5.58037234 M3.08574468,9.84302128 L8.86106383,15.6192979 L15.6187234,8.8616383 L9.84340426,3.0853617 L2.38968085,2.39025532 L3.08574468,9.84302128 Z M8.86106383,17.6050426 C8.41585106,17.6050426 7.97159574,17.4355745 7.63170213,17.0975957 L1.48776596,10.9527021 C1.32978723,10.7956809 1.23212766,10.5869574 1.21106383,10.3648298 L0.376170213,1.41844681 C0.350319149,1.13504255 0.450851064,0.854510638 0.65287234,0.652489362 C0.854893617,0.450468085 1.13446809,0.348021277 1.41882979,0.376744681 L10.3652128,1.2116383 C10.5873404,1.23174468 10.7951064,1.32940426 10.9530851,1.48738298 L17.0970213,7.63131915 C17.4254255,7.9597234 17.606383,8.39631915 17.606383,8.8616383 C17.606383,9.32695745 17.4254255,9.76355319 17.0970213,10.0919574 L10.091383,17.0966383 C9.75244681,17.4355745 9.30723404,17.6050426 8.86106383,17.6050426 L8.86106383,17.6050426 Z" id="path-1"></path>
    </defs>
    <g id="Symbols" stroke="none" stroke-width="1" fill="none" fill-rule="evenodd">
        <g id="product-type" transform="translate(-442.000000, -9.000000)">
            <g id="tag" transform="translate(442.000000, 9.000000)">
                <mask id="mask-2" fill="white">
                    <use xlink:href="#path-1"></use>
                </mask>
                <use id="Color" fill="#4339F2" xlink:href="#path-1"></use>
            </g>
        </g>
    </g>
</svg>